<svg width="160" height="160" viewBox="0 0 160 160" fill="none" xmlns="http://www.w3.org/2000/svg">
  <!-- 主光圈结构 -->
  <circle cx="80" cy="80" r="60" fill="none" stroke="#3A6B8C" stroke-width="3"/>
  
  <!-- 光圈叶片 - 简化设计 -->
  <g fill="#3A6B8C">
    <!-- 四个主要方向的光圈叶片 -->
    <rect x="78" y="30" width="4" height="20" rx="2"/>
    <rect x="78" y="110" width="4" height="20" rx="2"/>
    <rect x="30" y="78" width="20" height="4" rx="2"/>
    <rect x="110" y="78" width="20" height="4" rx="2"/>
    
    <!-- 对角线方向的光圈叶片 -->
    <rect x="95" y="45" width="4" height="20" rx="2" transform="rotate(45 95 45)"/>
    <rect x="65" y="45" width="4" height="20" rx="2" transform="rotate(-45 65 45)"/>
    <rect x="95" y="115" width="4" height="20" rx="2" transform="rotate(-45 95 115)"/>
    <rect x="65" y="115" width="4" height="20" rx="2" transform="rotate(45 65 115)"/>
  </g>
  
  <!-- 中心镜头元素 -->
  <circle cx="80" cy="80" r="20" fill="#3A6B8C" opacity="0.9"/>
  <circle cx="80" cy="80" r="12" fill="#C9A568"/>
  
  <!-- 焦点元素 -->
  <circle cx="80" cy="80" r="4" fill="#E54C2A"/>
  
  <!-- 连接点 - 象征社区 -->
  <circle cx="50" cy="50" r="3" fill="#3A6B8C" opacity="0.7"/>
  <circle cx="110" cy="50" r="3" fill="#3A6B8C" opacity="0.7"/>
  <circle cx="50" cy="110" r="3" fill="#3A6B8C" opacity="0.7"/>
  <circle cx="110" cy="110" r="3" fill="#3A6B8C" opacity="0.7"/>
</svg>